<?xml version="1.0" encoding="UTF-8" standalone="no"?>
<svg id="svg2" xmlns="http://www.w3.org/2000/svg" height="113.64" width="113.43" version="1.0">
 <g id="layer1" transform="translate(-64.929 -41.285)">
  <path id="path2320" d="m72.96 154.6c-1.769-0.38-3.894-1.47-5.006-2.56-1.205-1.19-1.999-2.6-2.567-4.57l-0.458-1.58v-47.493c0-44.396 0.022-47.581 0.343-48.829 0.85-3.304 2.655-5.668 5.308-6.953 2.937-1.421-0.602-1.329 51.14-1.329 51.53 0 48.34-0.08 51.1 1.28 2.63 1.293 4.4 3.688 5.18 6.998 0.34 1.464 0.36 3.805 0.36 48.932 0 44.344-0.03 47.484-0.35 48.734-1.03 4.01-3.65 6.55-7.64 7.39-1.98 0.42-95.458 0.4-97.41-0.02zm92.41-58.583v-32.918h-43.63-43.624v32.918 32.923h43.624 43.63v-32.923zm-72.222 22.063c2.513-2.59 7.472-7.66 11.012-11.26l6.44-6.54 2.65 2.68c2.78 2.82 3.76 3.49 5.94 4.07 1.4 0.37 3.96 0.37 5.42-0.01 1.96-0.51 3.05-1.25 5.86-3.99l2.67-2.61 8.73 8.92c4.8 4.91 9.69 9.94 10.87 11.19l2.15 2.26h-33.16-33.152l4.57-4.71zm-8.864-22.063l0.001-22.309 10.982 11.093 10.983 11.093-5.92 6.056c-3.249 3.34-8.192 8.38-10.979 11.22l-5.068 5.16 0.001-22.313zm71.456 18.793c-1.83-1.89-6.72-6.88-10.86-11.11l-7.53-7.691 10.93-10.952 10.94-10.952v22.061c0 12.134-0.03 22.064-0.07 22.064s-1.58-1.54-3.41-3.42zm-35.76-14.01c-0.37-0.2-7.56-7.354-15.99-15.906l-15.319-15.548 16.639-0.051c9.14-0.028 24.13-0.028 33.3 0l16.68 0.051-15.53 15.646c-9.47 9.535-15.79 15.748-16.18 15.918-0.91 0.38-2.79 0.32-3.6-0.11z"/>
 </g>
</svg>
